# xmcd
#
# Track frame offsets:
#	150
#	26280
#	70481
#	116261
#	136045
#	168651
#	215101
#	230565
#	250968
#	270813
#
# Disc length: 3992 seconds
#
# Revision: 0
# Processed by: cddbd v1.5.2PL0 Copyright (c) Steve Scherf et al.
# Submitted via: EZCDAudioConverter 1.3.4.1
#
DISCID=870f960a
DTITLE=Jamiroquai - Emergency On Planet Earth 2/2
DYEAR=2013
DGENRE=
TTITLE0=When You Gonna Learn? [Cante Hondo Mix]
TTITLE1=When You Gonna Learn? [Live At The Leadmill, Sheffield]
TTITLE2=Too Young To Die [Extended]
TTITLE3=If I Like It, I Do It [Acoustic]
TTITLE4=Emergency On Planet Earth [London Rican Mix]
TTITLE5=Revolution 1993 [Demo]
TTITLE6=Didgin' Out [Live At The Milky Way, Amsterdam]
TTITLE7=Brothers Like You [Live At Glastonbury, 1993]
TTITLE8=God Made Me Funky [Live At Glastonbury, 1993]
TTITLE9=Music Of The Mind [Live At Glastonbuty, 1993]
EXTD=
EXTT0=
EXTT1=
EXTT2=
EXTT3=
EXTT4=
EXTT5=
EXTT6=
EXTT7=
EXTT8=
EXTT9=
PLAYORDER=
